<?xml version="1.0" encoding="UTF-8"?>
<svg id="Layer_1" xmlns="http://www.w3.org/2000/svg" version="1.1" viewBox="0 0 1580.56 841.89">
  <!-- Generator: Adobe Illustrator 30.0.0, SVG Export Plug-In . SVG Version: 2.1.1 Build 123)  -->
  <defs>
    <style>
      .st0 {
        fill: #145a4e;
      }

      .st1 {
        fill: #053043;
      }
    </style>
  </defs>
  <path class="st0" d="M599.19,342.06c-6.02-2.89-17.07-4.59-21.07-6.89-.89-.51-2.64-.74-1.26-2.23.64-.69,14.05-4.61,17.68-6.81,31.55-19.13,30.42-66.56.23-86.48-39.41-26-127.56-9.88-173.66-14.4-.62.4-2.44,10.03-1.74,10.89,2.91,3.59,24.16-2.29,27.46,20.53l1.06,199.6c46.38-2.06,150.34,14.14,175.75-37.19,13.88-28.05,4.07-63.36-24.44-77.03ZM500.64,243.32c38.78-11.02,84.56,20.03,64.4,62.34-12.78,26.81-46.51,22.69-71.13,21.28v-71.38c0-6.46-2.46-9.63,6.73-12.24ZM532.42,438.79c-5.9.51-35.96,1.44-37.98-3.06-5.3-11.83,2.88-68.85-.49-85.28,1.32-5.03,11.62-3.83,16.75-4.23,6.67-.51,15.03-.78,21.65-.28,64.14,4.88,64.86,87.27.06,92.85Z"/>
  <path class="st0" d="M801.7,327.94v17.47c0,4.34-80.25-.22-86.94.5v90.84c0,3.71,68.71.32,74.15-1.3,6.51-1.94,15.78-8.68,20.29-13.67,4.9-5.43,12.26-23.76,13.45-24.49,1.6-.98,10.65.13,10.99.56,3.32,4.19-12.36,44.12-17.11,49.23-12.18,13.08-38.5,8.01-54.29,10.73-6.96-4.31-94.45,2.64-94.45-2.08v-199.16c0-3.68-5.85-12.61-9.06-14.9-9.69-6.92-26.08-.26-15.44-16.61,47.3,4.94,108.06-6.39,153.8.19,16.19,2.33,23.6,13.77,23.6,29.33v27.95c0,2.39-8.79,1.69-10.48-.51-3.88-5.02.52-19.3-11.98-29.96-15.83-13.49-60.94-6.97-81.79-7.79l-.18,83.68h85.44Z"/>
  <path class="st0" d="M1244.39,225.12v18.47c0,3.61-69.42-3.28-72.3,2.73l.35,210.41h-46.47c-.11,0-1.5-1.39-1.5-1.5v-211.14c-26.28.86-47.79-2.34-58.46,25.96-1.25,3.33-1.08,10.24-1.64,11.34-1.31,2.51-12.36,2.67-13.7,0-1-1.98,1.09-32.76,1.95-36.69,4.05-18.42,21.83-19.42,37.37-20.64l154.39,1.07Z"/>
  <path class="st0" d="M168.64,225.12c22.73,2.42,26.67,11.63,29.34,32.58,7.23,56.74-5.07,120.87,1.05,178.38l117,1.67v17.47c0,.11-1.39,1.5-1.5,1.5h-161.89c-1.11,0-1.85-3.37-1.6-4.48-3.4-59.36,8.3-137-.02-194.55-3.57-24.71-25.71-17.51-28.87-20.58-.43-.42-.59-11.98,0-11.98,14.22,0,32.85-1.45,46.47,0Z"/>
  <path class="st0" d="M385.99,225.12v188.18c0,6.58,1.11,16.53,5.01,21.95,6.54,9.1,21.79,8.63,23.1,10.07,1.63,1.8,1.81,9.79-1.84,11.19-5.85,2.24-50.67.09-57.52-3.01-7.18-3.26-14.72-15.7-14.72-23.23v-205.15h45.97Z"/>
  <path class="st0" d="M1033.99,433.81c-7.89-7.05-53.79-77.52-53.42-83.46.11-1.78,23.01-10.44,26.91-13,36.64-24.03,29.42-86.22-10.94-102.73-25.59-10.46-123.99-14.18-151.42-9.56-5.79.97-6.17,8.31-4.01,11.1.71.91,10.96,1.59,14.11,2.88,7.1,2.89,10.43,10.65,12.34,17.62l1.1,200.06h45.97c1.37-11.82-2.21-101.18,1.93-104.38,4.3-3.32,11.96,1.74,15.04,5.06,34.09,36.7,43.89,117.64,119.47,100.36,19.19-4.39-13.87-21.09-17.08-23.95ZM940.1,335.93h-25.48v-86.35c0-11.49,33.45-5.78,40.24-3.27,42.75,15.8,31.05,89.62-14.76,89.62Z"/>
  <path class="st0" d="M1457.09,444.9c-.5-.87-13.81-4.54-18.36-8.11-7.17-5.63-15.79-21.56-19.98-29.95l-76.59-181.54-22.76-.12-93.98,231.02,20.49-.46,23.91-60.97c1.5-3.65,3.76-3.48,7.02-3.97,24.09-3.59,57.16,4.45,82.54.49,13.16,18.38,16.75,44.11,38.38,57.49,9.24,5.72,54.6,12.82,59.06,7.01.67-.87.8-10,.28-10.89ZM1281.37,371.33c5.59-8.73,31.23-81.05,35.55-82.25,4.9-1.36,32.29,78.04,37.38,84.77l-72.93-2.53Z"/>
  <path class="st1" d="M423.96,530.1c-2.89-11.4-21.91-5.04-14.3-16.51,17.89,3.07,93.09-4.98,104.16,2.61,5.32,3.65,7.61,29.85,6.08,31.37-.25.25-6.25.17-7.07-.44-2.18-1.61-1.86-22.53-19.42-22.53h-38.97c-.11,0-1.5,1.39-1.5,1.5v45.42c0,.13,2.36,1,2.5,1h52.46c-.2,1.73.89,11.98-1.5,11.98h-53.46v49.42c0,4.48,39.21,2.37,44.22,1.25,18.14-4.05,17.26-16.13,23.15-19.79,14.32-8.88,1.6,26.22-5.72,30.22-16.08,8.8-70.24-2.14-90.64,1.8v-117.3Z"/>
  <path class="st1" d="M670.79,558.55c-.26.29-6.72-1.27-7.51-1.98-7.23-6.38-3.43-24.09-25.78-32.14-91.21-32.87-73.7,166.54,13.23,107.41,5.74-3.9,15.83-18.45,17.02-18.9,1.36-.51,8.72,2.74,9.03,4.08,1.14,4.96-19.96,24.71-25.3,27.54-57.83,30.7-123.91-24-101.61-88.53,21.03-60.83,120.93-56.13,120.93-13.96,0,2.43.54,15.85,0,16.47Z"/>
  <path class="st1" d="M938.6,524.6h-43.97v122.79h-29.98v-122.79h-19.49c-14.56,0-17.41,24.51-21.02,25.02-6.76.96-8.21-30.64,4.1-34.93,22.05-7.68,81.96,3.57,107.85-1.07,4.42.89,1.91,7.5,2.5,10.98Z"/>
  <path class="st1" d="M1255.38,513.62h27.48c.11,0,1.5,1.39,1.5,1.5v106.82c0,2.86,2.05,11.62,3.78,14.19,3.54,5.23,12.87,4.72,12.2,9.83-.52,3.94-27.09,2.87-31.79,1.76-5.96-1.41-13.17-8.63-13.17-14.79v-119.3Z"/>
  <g>
    <path class="st1" d="M1023.09,501.69c1.36-.91,19.71-25.98,18.44-27-.88-.7-19.34,0-22.48,0-1.39,0-8.74,25.19-8.44,26.55.98,4.39,9.13,2.71,12.49.46Z"/>
    <path class="st1" d="M1017.55,509.59c-39.48,0-71.49,31.97-71.49,71.42s32.01,71.42,71.49,71.42,71.49-31.97,71.49-71.42-32.01-71.42-71.49-71.42ZM1002.57,637.9c-34.82-15.88-34.39-109.56,7.75-116.03,69.08-10.61,57.01,145.55-7.75,116.03Z"/>
  </g>
  <path class="st1" d="M213.64,513.59c-7.31-.68-67.58-1.21-70.84.17-1.49.63-3.09,4.66-2.24,5.89,1.86,2.67,14.27-.58,16.59,11.44v114.8c0,.11,1.39,1.5,1.5,1.5h28.48v-52.41c0-1.66,29.58-1.26,33.2-1.78,55.45-8.02,52.38-74.15-6.68-79.61ZM201.48,584.37c-1.83.17-14.36.96-14.36-1.36,0-7.58-1.16-55.25,0-57.9,1.02-2.34,11.12-1.64,13.46-1.47,36.03,2.66,37.16,57.33.89,60.73Z"/>
  <path class="st1" d="M394.49,639.4c-6.02-5.48-37.63-47.7-37.48-52.44.05-1.63,20.52-8.23,26.16-18.75,16.42-30.63-10.15-51.51-38.65-54.59-21.34-2.3-51.12,0-73.45,0-.3,0-1.39,4.47-.54,5.98,2.89,5.17,14.04-4.45,16.5,16.51,4.09,34.78-3.63,75.84.03,111.28h28.48c4.24,0-1.37-60.19,2.99-60.99,1.5-.27,6.64,1.03,7.98,2.1,3.06,2.45,18.21,32.27,23.67,39.24,11.98,15.29,30.14,28.28,50.88,21.21,8.93-3.04-5.09-8.21-6.58-9.57ZM335.53,577.51h-18.49v-53.91h15.49c33.43,0,29.89,53.91,3,53.91Z"/>
  <path class="st1" d="M1217.45,630.88c-11.15-12.45-17.49-31.09-28.82-43.9,47.21-15.52,41-67.77-8.84-73.22-7.84-.86-73.48-2.17-75.87.78-5.52,6.84,20.33,7.84,15.53,21.56,1.57,13.01-3.92,107.36.02,111.29,1.03,1.02,27.96,2.01,28.99.99,2.15-2.13,0-52.75,0-60.4,0-1.63,4.11-1.58,5.41-1.46,11.9,1.12,25.48,58.83,60.08,62.83,3.41.39,21.69,1.58,21.26-3.62-.1-1.15-14.39-11.1-17.75-14.86ZM1166.94,577.51h-16.99c-.11,0-1.5-1.39-1.5-1.5v-50.91c0-.27,1.17-.99,1.5-1.5h16.99c30.11,0,30.07,53.91,0,53.91Z"/>
  <path class="st1" d="M819.15,637.45c-3.37-3.66-6.47-8.67-8.98-13-7.98-13.78-44.84-108.03-50.47-110.31-2.76-1.12-12.45-1.33-14.88,1.06l-58.04,133.18c22.65,8.7,19.6-34.65,33.41-36.99,4.02-.68,48.44-.62,50.83.26,2.62.96,8.28,17.22,10.88,21.08,8.87,13.17,26.75,19.28,42.18,16.55,13.95-2.47-2.02-8.68-4.93-11.84ZM721.76,600.47c3.53-5.6,18.88-49.18,21.5-49.92,2.65-.76,21.32,45.71,23.47,49.92h-44.97Z"/>
  <path class="st1" d="M1386.82,509.48c-39.56,0-71.64,32.04-71.64,71.56s32.07,71.56,71.64,71.56,71.64-32.04,71.64-71.56-32.07-71.56-71.64-71.56ZM1402.95,637.58c-64.63,31.39-77.71-115.74-17.16-116.38,50.71-.54,50.26,100.3,17.16,116.38Z"/>
</svg>